<svg preserveAspectRatio="none" width="100%" height="100%" overflow="visible" style="display: block;" viewBox="0 0 744 744" fill="none" xmlns="http://www.w3.org/2000/svg">
<g id="2 1">
<rect width="744" height="744" fill="black"/>
<path id="Vector" d="M381.16 345.79C380.76 345.79 380.36 345.76 379.95 345.76H377.71L381.16 345.79Z" fill="var(--fill-0, white)"/>
<path id="Vector_2" d="M374.17 232.41H268.69V96.4301C268.69 92.2301 265.29 88.8301 261.09 88.8301H172.6C168.4 88.8301 165 92.2301 165 96.4301V136.42C165 249.21 256.11 335.15 368.75 335.77L408.69 335.79H419.07C450.57 335.79 476.1 361.33 476.1 392.82V484.76C476.1 516.26 450.56 541.79 419.07 541.79H327.2C295.7 541.79 270.17 516.25 270.17 484.76V369.29C270.17 365.09 266.77 361.69 262.57 361.69H172.62C168.42 361.69 165.02 365.09 165.02 369.29V441.58C165.02 559.53 268.24 654.26 387.88 646.51C487.3 640.07 566.81 561.07 578.17 462.09C592.44 337.79 495.63 232.4 374.2 232.4L374.17 232.41Z" fill="var(--fill-0, white)"/>
</g>
</svg>
